<svg width="35" height="35" viewBox="0 0 35 35" fill="none" xmlns="http://www.w3.org/2000/svg">
<path d="M10.5729 13.1248C10.5729 12.5207 11.0626 12.0311 11.6667 12.0311H16.0417C16.6457 12.0311 17.1354 12.5207 17.1354 13.1248C17.1354 13.7289 16.6457 14.2186 16.0417 14.2186H11.6667C11.0626 14.2186 10.5729 13.7289 10.5729 13.1248Z" fill="black" fill-opacity="0.5"/>
<path fill-rule="evenodd" clip-rule="evenodd" d="M1.87906 4.02893C2.07008 3.45587 2.68949 3.14617 3.26255 3.33719L3.70644 3.48515C4.6199 3.7896 5.39185 4.04689 5.99885 4.32927C6.64407 4.62943 7.20392 5.00144 7.62843 5.59042C8.05295 6.17941 8.22883 6.82816 8.30955 7.53519C8.31409 7.57495 8.31836 7.61524 8.32237 7.65606L24.0783 7.65606C25.5015 7.656 26.6922 7.65595 27.6028 7.79076C28.5528 7.9314 29.4691 8.25469 30.0469 9.13101C30.6247 10.0073 30.561 10.9768 30.316 11.9054C30.0812 12.7955 29.6121 13.8899 29.0515 15.198L28.3707 16.7865C28.1132 17.3875 27.8866 17.9162 27.6511 18.3347C27.3962 18.7878 27.085 19.1993 26.6139 19.51C26.1427 19.8206 25.6419 19.9446 25.1251 20.0004C24.6476 20.052 24.0725 20.0519 23.4186 20.0519H8.97397C9.0816 20.2472 9.20547 20.4082 9.34648 20.5492C9.7501 20.9528 10.3168 21.2159 11.3869 21.3598C12.4884 21.5079 13.9484 21.5102 16.0417 21.5102H27.7083C28.3124 21.5102 28.8021 21.9999 28.8021 22.604C28.8021 23.208 28.3124 23.6977 27.7083 23.6977H15.9617C13.9673 23.6978 12.3597 23.6978 11.0954 23.5278C9.78272 23.3513 8.67748 22.9738 7.79969 22.096C6.92189 21.2182 6.54434 20.1129 6.36786 18.8003C6.19787 17.536 6.1979 15.9284 6.19793 13.934L6.19793 10.0376C6.19793 8.99779 6.19628 8.30979 6.13617 7.78332C6.07925 7.2848 5.97987 7.04433 5.85384 6.86948C5.72781 6.69462 5.53112 6.5243 5.07617 6.31265C4.59573 6.08915 3.94356 5.87002 2.95713 5.54121L2.5708 5.41243C1.99774 5.22141 1.68804 4.602 1.87906 4.02893ZM8.46815 17.8644H23.3652C24.0883 17.8644 24.5442 17.8629 24.8903 17.8256C25.21 17.791 25.3329 17.7344 25.4097 17.6838C25.4864 17.6331 25.587 17.5425 25.7446 17.2622C25.9153 16.9588 26.0962 16.5404 26.3811 15.8757L27.0061 14.4174C27.6106 13.0069 28.0123 12.0621 28.2009 11.3475C28.3841 10.653 28.2912 10.4422 28.2207 10.3352C28.1501 10.2282 27.993 10.0599 27.2825 9.95468C26.5513 9.84644 25.5247 9.84356 23.9902 9.84356H8.38543C8.38543 9.88766 8.38543 9.93208 8.38543 9.97683L8.38543 13.854C8.38543 15.5631 8.38698 16.85 8.46815 17.8644Z" fill="black" fill-opacity="0.5"/>
<path fill-rule="evenodd" clip-rule="evenodd" d="M10.9375 31.7186C9.12533 31.7186 7.65626 30.2495 7.65626 28.4373C7.65626 26.6251 9.12533 25.1561 10.9375 25.1561C12.7497 25.1561 14.2188 26.6251 14.2188 28.4373C14.2188 30.2495 12.7497 31.7186 10.9375 31.7186ZM9.84376 28.4373C9.84376 29.0414 10.3335 29.5311 10.9375 29.5311C11.5416 29.5311 12.0313 29.0414 12.0313 28.4373C12.0313 27.8333 11.5416 27.3436 10.9375 27.3436C10.3335 27.3436 9.84376 27.8333 9.84376 28.4373Z" fill="black" fill-opacity="0.5"/>
<path fill-rule="evenodd" clip-rule="evenodd" d="M20.7813 28.4374C20.7813 30.2496 22.2503 31.7187 24.0625 31.7187C25.8747 31.7187 27.3438 30.2496 27.3438 28.4374C27.3438 26.6252 25.8747 25.1562 24.0625 25.1562C22.2503 25.1562 20.7813 26.6252 20.7813 28.4374ZM24.0625 29.5312C23.4584 29.5312 22.9688 29.0415 22.9688 28.4374C22.9688 27.8334 23.4584 27.3437 24.0625 27.3437C24.6666 27.3437 25.1563 27.8334 25.1563 28.4374C25.1563 29.0415 24.6666 29.5312 24.0625 29.5312Z" fill="black" fill-opacity="0.5"/>
</svg>
