<svg width="52" height="44" viewBox="0 0 52 44" fill="none" xmlns="http://www.w3.org/2000/svg">
<rect width="52" height="44" rx="8" fill="white"/>
<path d="M14.0895 24.1562L13.1105 22H19.9632L19.18 19.8438H12.7842L11.8053 17.6875H21.9863L21.2032 15.5312H11.6225L10.5 13.375H15.3947C15.3947 12.6125 15.6698 11.8812 16.1593 11.3421C16.6489 10.8029 17.3129 10.5 18.0053 10.5H33.6684V16.25H37.5842L41.5 22V29.1875H38.8895C38.8895 30.3312 38.4769 31.4281 37.7426 32.2369C37.0082 33.0456 36.0122 33.5 34.9737 33.5C33.9352 33.5 32.9392 33.0456 32.2048 32.2369C31.4704 31.4281 31.0579 30.3312 31.0579 29.1875H25.8368C25.8368 30.3312 25.4243 31.4281 24.6899 32.2369C23.9556 33.0456 22.9596 33.5 21.9211 33.5C20.8825 33.5 19.8865 33.0456 19.1522 32.2369C18.4178 31.4281 18.0053 30.3312 18.0053 29.1875H15.3947V24.1562H14.0895ZM34.9737 31.3438C35.493 31.3438 35.9909 31.1166 36.3581 30.7122C36.7253 30.3078 36.9316 29.7594 36.9316 29.1875C36.9316 28.6156 36.7253 28.0672 36.3581 27.6628C35.9909 27.2584 35.493 27.0312 34.9737 27.0312C34.4544 27.0312 33.9564 27.2584 33.5892 27.6628C33.2221 28.0672 33.0158 28.6156 33.0158 29.1875C33.0158 29.7594 33.2221 30.3078 33.5892 30.7122C33.9564 31.1166 34.4544 31.3438 34.9737 31.3438ZM36.9316 18.4062H33.6684V22H39.4899L36.9316 18.4062ZM21.9211 31.3438C22.4403 31.3438 22.9383 31.1166 23.3055 30.7122C23.6727 30.3078 23.8789 29.7594 23.8789 29.1875C23.8789 28.6156 23.6727 28.0672 23.3055 27.6628C22.9383 27.2584 22.4403 27.0312 21.9211 27.0312C21.4018 27.0312 20.9038 27.2584 20.5366 27.6628C20.1694 28.0672 19.9632 28.6156 19.9632 29.1875C19.9632 29.7594 20.1694 30.3078 20.5366 30.7122C20.9038 31.1166 21.4018 31.3438 21.9211 31.3438Z" fill="black"/>
</svg>
