<svg width="24" height="24" viewBox="0 0 24 24" fill="none" xmlns="http://www.w3.org/2000/svg">
<path d="M9.00009 17.25C8.58588 17.25 8.25009 17.5858 8.25009 18C8.25009 18.4142 8.58588 18.75 9.00009 18.75H15.0001C15.4143 18.75 15.7501 18.4142 15.7501 18C15.7501 17.5858 15.4143 17.25 15.0001 17.25H9.00009Z" fill="black"/>
<path fill-rule="evenodd" clip-rule="evenodd" d="M12 1.25021C11.2749 1.25021 10.6134 1.44933 9.88928 1.78732C9.18832 2.1145 8.37772 2.59737 7.36183 3.20254L5.90622 4.06964C4.78711 4.73628 3.89535 5.26748 3.22015 5.77546C2.52314 6.29984 1.99999 6.83982 1.65907 7.55093C1.31799 8.2624 1.22554 9.00701 1.25519 9.87605C1.2839 10.7172 1.43105 11.7399 1.61556 13.0221L1.90792 15.0539C2.14531 16.7038 2.33368 18.0131 2.61512 19.0324C2.90523 20.0831 3.31686 20.9171 4.05965 21.5567C4.80184 22.1958 5.68984 22.4817 6.77634 22.6179C7.83154 22.7502 9.16281 22.7502 10.8423 22.7502H13.1577C14.8372 22.7502 16.1685 22.7502 17.2237 22.6179C18.3102 22.4817 19.1982 22.1958 19.9404 21.5567C20.6831 20.9171 21.0948 20.0831 21.3849 19.0324C21.6663 18.0131 21.8547 16.7038 22.0921 15.0539L22.3844 13.0221C22.569 11.7399 22.7161 10.7172 22.7448 9.87606C22.7745 9.00701 22.682 8.2624 22.3409 7.55093C22 6.83982 21.4769 6.29984 20.7799 5.77546C20.1047 5.26748 19.2129 4.73628 18.0938 4.06964L16.6382 3.20254C15.6223 2.59737 14.8117 2.1145 14.1107 1.78732C13.3866 1.44933 12.7251 1.25021 12 1.25021ZM8.09558 4.51142C9.15309 3.88147 9.89923 3.43802 10.5237 3.14655C11.1328 2.86225 11.5708 2.75021 12 2.75021C12.4293 2.75021 12.8672 2.86225 13.4763 3.14655C14.1008 3.43802 14.8469 3.88147 15.9044 4.51142L17.2893 5.33636C18.4536 6.02994 19.2752 6.52055 19.8781 6.97411C20.4665 7.41683 20.7888 7.78316 20.9883 8.19938C21.1877 8.61526 21.2706 9.09358 21.2457 9.8249C21.2201 10.5747 21.0856 11.5165 20.8936 12.8513L20.6148 14.7886C20.3683 16.5018 20.1921 17.7164 19.939 18.6332C19.6916 19.5291 19.3939 20.0478 18.9616 20.4201C18.5287 20.7928 17.9676 21.0129 17.037 21.1296C16.086 21.2488 14.8488 21.2502 13.1061 21.2502H10.8939C9.15124 21.2502 7.91405 21.2488 6.963 21.1296C6.03246 21.0129 5.47129 20.7928 5.03841 20.4201C4.60614 20.0478 4.30838 19.5291 4.06102 18.6332C3.80791 17.7164 3.6317 16.5018 3.3852 14.7886L3.10643 12.8513C2.91437 11.5165 2.77991 10.5747 2.75432 9.8249C2.72937 9.09358 2.81229 8.61526 3.01167 8.19938C3.21121 7.78316 3.53347 7.41683 4.12194 6.97411C4.72482 6.52055 5.54643 6.02994 6.71074 5.33636L8.09558 4.51142Z" fill="black"/>
</svg>
