<svg width="12" height="12" viewBox="0 0 12 12" fill="none" xmlns="http://www.w3.org/2000/svg">
<g clip-path="url(#clip0_545_7182)">
<path d="M4.5 6C4.5 6.27614 4.27614 6.5 4 6.5C3.72386 6.5 3.5 6.27614 3.5 6C3.5 5.72386 3.72386 5.5 4 5.5C4.27614 5.5 4.5 5.72386 4.5 6Z" fill="#646464"/>
<path d="M6.5 6C6.5 6.27614 6.27614 6.5 6 6.5C5.72386 6.5 5.5 6.27614 5.5 6C5.5 5.72386 5.72386 5.5 6 5.5C6.27614 5.5 6.5 5.72386 6.5 6Z" fill="#646464"/>
<path d="M8 6.5C8.27614 6.5 8.5 6.27614 8.5 6C8.5 5.72386 8.27614 5.5 8 5.5C7.72386 5.5 7.5 5.72386 7.5 6C7.5 6.27614 7.72386 6.5 8 6.5Z" fill="#646464"/>
<path fill-rule="evenodd" clip-rule="evenodd" d="M6 0.625C3.03147 0.625 0.625 3.03147 0.625 6C0.625 8.96853 3.03147 11.375 6 11.375C8.96853 11.375 11.375 8.96853 11.375 6C11.375 3.03147 8.96853 0.625 6 0.625ZM1.375 6C1.375 3.44568 3.44568 1.375 6 1.375C8.55432 1.375 10.625 3.44568 10.625 6C10.625 8.55432 8.55432 10.625 6 10.625C3.44568 10.625 1.375 8.55432 1.375 6Z" fill="#646464"/>
</g>
<defs>
<clipPath id="clip0_545_7182">
<rect width="12" height="12" fill="white"/>
</clipPath>
</defs>
</svg>
