<svg width="23" height="23" viewBox="0 0 23 23" fill="none" xmlns="http://www.w3.org/2000/svg">
<path d="M0.821411 18.0714C0.82141 18.5065 0.994045 18.9239 1.30143 19.2319C1.60882 19.5399 2.02584 19.7133 2.46098 19.7142H20.539C20.9741 19.7133 21.3911 19.5399 21.6985 19.2319C22.0059 18.9239 22.1786 18.5065 22.1786 18.0714V14.7298C21.4692 14.5374 20.8429 14.1169 20.3964 13.5332C19.9498 12.9494 19.7079 12.2349 19.7079 11.4999C19.7079 10.765 19.9498 10.0504 20.3964 9.4667C20.8429 8.88294 21.4692 8.46242 22.1786 8.27007V4.9285C22.1786 4.49336 22.0059 4.07599 21.6985 3.76799C21.3911 3.45999 20.9741 3.28651 20.539 3.28564H2.46098C2.02584 3.28651 1.60882 3.45999 1.30143 3.76799C0.994045 4.07599 0.82141 4.49336 0.821411 4.9285V8.2635C1.53641 8.45156 2.16902 8.87109 2.62044 9.4566C3.07186 10.0421 3.31668 10.7606 3.31668 11.4999C3.31668 12.2393 3.07186 12.9578 2.62044 13.5433C2.16902 14.1288 1.53641 14.5483 0.821411 14.7364V18.0714Z" fill="#0741E2"/>
<path d="M8.24709 9.03544C8.46494 9.03544 8.67388 8.94889 8.82793 8.79484C8.98197 8.6408 9.06852 8.43186 9.06852 8.21401C9.06852 7.99615 8.98197 7.78722 8.82793 7.63317C8.67388 7.47912 8.46494 7.39258 8.24709 7.39258C8.02923 7.39258 7.8203 7.47912 7.66625 7.63317C7.5122 7.78722 7.42566 7.99615 7.42566 8.21401C7.42566 8.43186 7.5122 8.6408 7.66625 8.79484C7.8203 8.94889 8.02923 9.03544 8.24709 9.03544ZM14.8185 15.6069C15.0364 15.6069 15.2453 15.5203 15.3994 15.3663C15.5534 15.2122 15.6399 15.0033 15.6399 14.7854C15.6399 14.5676 15.5534 14.3586 15.3994 14.2046C15.2453 14.0505 15.0364 13.964 14.8185 13.964C14.6007 13.964 14.3917 14.0505 14.2377 14.2046C14.0836 14.3586 13.9971 14.5676 13.9971 14.7854C13.9971 15.0033 14.0836 15.2122 14.2377 15.3663C14.3917 15.5203 14.6007 15.6069 14.8185 15.6069Z" stroke="white" stroke-linecap="round" stroke-linejoin="round"/>
<line x1="15.5807" y1="7.38435" x2="7.38457" y2="15.5805" stroke="white" stroke-linecap="round"/>
</svg>
