<svg width="22" height="22" viewBox="0 0 22 22" fill="none" xmlns="http://www.w3.org/2000/svg">
<path d="M11.75 6.75C11.75 6.19772 11.3023 5.75 10.75 5.75C10.1977 5.75 9.75 6.19772 9.75 6.75C9.75 7.30228 10.1977 7.75 10.75 7.75C11.3023 7.75 11.75 7.30228 11.75 6.75Z" fill="#608EE7"/>
<path d="M10.75 16.5C11.1642 16.5 11.5 16.1642 11.5 15.75V9.75C11.5 9.33579 11.1642 9 10.75 9C10.3358 9 10 9.33579 10 9.75V15.75C10 16.1642 10.3358 16.5 10.75 16.5Z" fill="#608EE7"/>
<path fill-rule="evenodd" clip-rule="evenodd" d="M10.8074 2.0119e-07H10.6926C8.38424 -1.22504e-05 6.57519 -2.19941e-05 5.16371 0.189747C3.71897 0.383987 2.57895 0.789327 1.68414 1.68414C0.789327 2.57895 0.383987 3.71897 0.189747 5.16371C-2.19941e-05 6.57519 -1.22504e-05 8.38422 2.0119e-07 10.6926V10.8074C-1.22504e-05 13.1158 -2.19941e-05 14.9248 0.189747 16.3363C0.383987 17.781 0.789327 18.9211 1.68414 19.8159C2.57895 20.7107 3.71897 21.116 5.16371 21.3103C6.57519 21.5 8.38423 21.5 10.6926 21.5H10.8074C13.1158 21.5 14.9248 21.5 16.3363 21.3103C17.781 21.116 18.9211 20.7107 19.8159 19.8159C20.7107 18.9211 21.116 17.781 21.3103 16.3363C21.5 14.9248 21.5 13.1158 21.5 10.8074V10.6926C21.5 8.38423 21.5 6.57519 21.3103 5.16371C21.116 3.71897 20.7107 2.57895 19.8159 1.68414C18.9211 0.789327 17.781 0.383987 16.3363 0.189747C14.9248 -2.19941e-05 13.1158 -1.22504e-05 10.8074 2.0119e-07ZM2.7448 2.7448C3.31445 2.17514 4.08517 1.84825 5.36358 1.67637C6.66356 1.50159 8.37177 1.5 10.75 1.5C13.1282 1.5 14.8364 1.50159 16.1364 1.67637C17.4148 1.84825 18.1855 2.17514 18.7552 2.7448C19.3249 3.31445 19.6518 4.08517 19.8236 5.36358C19.9984 6.66356 20 8.37177 20 10.75C20 13.1282 19.9984 14.8364 19.8236 16.1364C19.6518 17.4148 19.3249 18.1855 18.7552 18.7552C18.1855 19.3249 17.4148 19.6518 16.1364 19.8236C14.8364 19.9984 13.1282 20 10.75 20C8.37177 20 6.66356 19.9984 5.36358 19.8236C4.08517 19.6518 3.31445 19.3249 2.7448 18.7552C2.17514 18.1855 1.84825 17.4148 1.67637 16.1364C1.50159 14.8364 1.5 13.1282 1.5 10.75C1.5 8.37177 1.50159 6.66356 1.67637 5.36358C1.84825 4.08517 2.17514 3.31445 2.7448 2.7448Z" fill="#608EE7"/>
</svg>
