<svg width="18" height="18" viewBox="0 0 18 18" fill="none" xmlns="http://www.w3.org/2000/svg">
<path d="M9.58333 6.45833C9.58333 6.11316 9.30351 5.83333 8.95833 5.83333C8.61315 5.83333 8.33333 6.11316 8.33333 6.45833L8.33333 8.33335H6.45833C6.11316 8.33335 5.83333 8.61318 5.83333 8.95835C5.83333 9.30353 6.11316 9.58335 6.45833 9.58335H8.33333V11.4583C8.33333 11.8035 8.61315 12.0833 8.95833 12.0833C9.30351 12.0833 9.58333 11.8035 9.58333 11.4583L9.58333 9.58335H11.4583C11.8035 9.58335 12.0833 9.30353 12.0833 8.95835C12.0833 8.61318 11.8035 8.33335 11.4583 8.33335H9.58333V6.45833Z" fill="#1256DB"/>
<path fill-rule="evenodd" clip-rule="evenodd" d="M9.00615 1.67658e-07H8.91052C6.98686 -1.02087e-05 5.47932 -1.83284e-05 4.30309 0.158123C3.09914 0.319989 2.14912 0.657773 1.40345 1.40345C0.657773 2.14912 0.319989 3.09914 0.158123 4.30309C-1.83284e-05 5.47932 -1.02087e-05 6.98685 1.67658e-07 8.9105V9.00615C-1.02087e-05 10.9298 -1.83284e-05 12.4373 0.158123 13.6136C0.319989 14.8175 0.657773 15.7675 1.40345 16.5132C2.14912 17.2589 3.09914 17.5967 4.30309 17.7585C5.47933 17.9167 6.98686 17.9167 8.91052 17.9167H9.00614C10.9298 17.9167 12.4373 17.9167 13.6136 17.7585C14.8175 17.5967 15.7675 17.2589 16.5132 16.5132C17.2589 15.7675 17.5967 14.8175 17.7585 13.6136C17.9167 12.4373 17.9167 10.9298 17.9167 9.00614V8.91052C17.9167 6.98686 17.9167 5.47933 17.7585 4.30309C17.5967 3.09914 17.2589 2.14912 16.5132 1.40345C15.7675 0.657773 14.8175 0.319989 13.6136 0.158123C12.4373 -1.83284e-05 10.9298 -1.02087e-05 9.00615 1.67658e-07ZM2.28733 2.28733C2.76204 1.81262 3.40431 1.54021 4.46965 1.39698C5.55296 1.25133 6.97648 1.25 8.95833 1.25C10.9402 1.25 12.3637 1.25133 13.447 1.39698C14.5124 1.54021 15.1546 1.81262 15.6293 2.28733C16.104 2.76204 16.3765 3.40431 16.5197 4.46965C16.6653 5.55296 16.6667 6.97648 16.6667 8.95833C16.6667 10.9402 16.6653 12.3637 16.5197 13.447C16.3765 14.5124 16.104 15.1546 15.6293 15.6293C15.1546 16.104 14.5124 16.3765 13.447 16.5197C12.3637 16.6653 10.9402 16.6667 8.95833 16.6667C6.97648 16.6667 5.55296 16.6653 4.46965 16.5197C3.40431 16.3765 2.76204 16.104 2.28733 15.6293C1.81262 15.1546 1.54021 14.5124 1.39698 13.447C1.25133 12.3637 1.25 10.9402 1.25 8.95833C1.25 6.97648 1.25133 5.55296 1.39698 4.46965C1.54021 3.40431 1.81262 2.76204 2.28733 2.28733Z" fill="#1256DB"/>
</svg>
