<svg width="62" height="56" viewBox="0 0 62 56" fill="none" xmlns="http://www.w3.org/2000/svg">
<path fill-rule="evenodd" clip-rule="evenodd" d="M18.3071 6.42323C19.0765 2.66153 22.4379 0 26.289 0H35.711C39.5621 0 42.9235 2.66153 43.6929 6.42323C43.8705 7.29161 44.6605 7.92861 45.4821 7.92861H45.5293L45.5765 7.93067C49.6237 8.10691 52.7322 8.6015 55.3275 10.297C56.9627 11.3653 58.3692 12.7398 59.4652 14.3436C60.8289 16.339 61.4303 18.6292 61.7185 21.399C62 24.1052 62 27.4974 62 31.7938V32.0384C62 36.3347 62 39.7269 61.7185 42.4331C61.4303 45.203 60.8289 47.4932 59.4652 49.4886C58.3692 51.0924 56.9627 52.4668 55.3275 53.5351C53.2989 54.8604 50.9733 55.4448 48.1525 55.7253C45.3907 56 41.9265 56 37.5271 56H24.4729C20.0735 56 16.6093 56 13.8475 55.7253C11.0268 55.4448 8.70109 54.8604 6.67249 53.5351C5.03733 52.4668 3.63076 51.0924 2.53476 49.4886C1.17113 47.4932 0.569695 45.203 0.281514 42.4331C-4.45607e-05 39.7269 -2.47896e-05 36.3347 4.77219e-07 32.0384V31.7938C-2.47896e-05 27.4974 -4.45607e-05 24.1053 0.281514 21.399C0.569695 18.6292 1.17113 16.339 2.53476 14.3436C3.63076 12.7398 5.03733 11.3653 6.67249 10.297C9.26778 8.6015 12.3764 8.10691 16.4235 7.93067L16.4707 7.92861H16.5179C17.3395 7.92861 18.1295 7.29162 18.3071 6.42323ZM26.289 4.30769C24.4402 4.30769 22.894 5.57988 22.5456 7.28306C21.9814 10.0415 19.5257 12.2105 16.5708 12.2361C12.6818 12.4081 10.5987 12.8839 9.04519 13.8988C7.88148 14.6591 6.88493 15.6343 6.11078 16.7672C5.31443 17.9325 4.83588 19.4227 4.58406 21.843C4.32829 24.3013 4.32558 27.4704 4.32558 31.9161C4.32558 36.3617 4.32829 39.5308 4.58406 41.9892C4.83588 44.4095 5.31443 45.8997 6.11078 47.065C6.88493 48.1978 7.88148 49.173 9.04519 49.9333C10.2492 50.7199 11.7899 51.1916 14.2774 51.439C16.7991 51.6898 20.0474 51.6923 24.5917 51.6923H37.4083C41.9526 51.6923 45.2009 51.6898 47.7226 51.439C50.2101 51.1916 51.7508 50.7199 52.9548 49.9333C54.1185 49.173 55.1151 48.1978 55.8892 47.065C56.6856 45.8997 57.1641 44.4095 57.4159 41.9892C57.6717 39.5308 57.6744 36.3617 57.6744 31.9161C57.6744 27.4704 57.6717 24.3013 57.4159 21.843C57.1641 19.4227 56.6856 17.9325 55.8892 16.7672C55.1151 15.6343 54.1185 14.6591 52.9548 13.8988C51.4013 12.8839 49.3182 12.4081 45.4292 12.2361C42.4743 12.2105 40.0186 10.0415 39.4544 7.28307C39.106 5.57988 37.5598 4.30769 35.711 4.30769H26.289ZM31 24.4103C27.4166 24.4103 24.5116 27.3032 24.5116 30.8718C24.5116 34.4404 27.4166 37.3333 31 37.3333C34.5834 37.3333 37.4884 34.4404 37.4884 30.8718C37.4884 27.3032 34.5834 24.4103 31 24.4103ZM20.186 30.8718C20.186 24.9241 25.0276 20.1026 31 20.1026C36.9724 20.1026 41.814 24.9241 41.814 30.8718C41.814 36.8195 36.9724 41.641 31 41.641C25.0276 41.641 20.186 36.8195 20.186 30.8718ZM46.1395 22.2564C46.1395 21.0669 47.1078 20.1026 48.3023 20.1026H51.186C52.3805 20.1026 53.3488 21.0669 53.3488 22.2564C53.3488 23.4459 52.3805 24.4103 51.186 24.4103H48.3023C47.1078 24.4103 46.1395 23.4459 46.1395 22.2564Z" fill="#608EE7"/>
</svg>
