<svg width="16" height="16" viewBox="0 0 16 16" fill="none" xmlns="http://www.w3.org/2000/svg">
<path fill-rule="evenodd" clip-rule="evenodd" d="M3.74973 2.94946C2.64374 3.45502 1.8335 4.65749 1.8335 6.0914C1.8335 7.55633 2.43297 8.68549 3.29235 9.65318C4.00065 10.4507 4.85805 11.1118 5.69425 11.7564C5.89285 11.9095 6.09026 12.0617 6.28419 12.2146C6.63488 12.491 6.94771 12.7337 7.24924 12.9099C7.55092 13.0862 7.79376 13.1667 8.00016 13.1667C8.20656 13.1667 8.4494 13.0862 8.75109 12.9099C9.05261 12.7337 9.36544 12.491 9.71613 12.2146C9.91006 12.0617 10.1075 11.9095 10.3061 11.7564C11.1423 11.1118 11.9997 10.4507 12.708 9.65318C13.5674 8.68549 14.1668 7.55633 14.1668 6.0914C14.1668 4.65749 13.3566 3.45502 12.2506 2.94946C11.1761 2.45832 9.73239 2.58839 8.36041 4.01382C8.26615 4.11175 8.13608 4.16709 8.00016 4.16709C7.86424 4.16709 7.73418 4.11175 7.63992 4.01382C6.26794 2.58839 4.82421 2.45832 3.74973 2.94946ZM8.00016 2.97255C6.45879 1.5935 4.7328 1.40058 3.334 2.03998C1.85664 2.71528 0.833496 4.28336 0.833496 6.0914C0.833496 7.86842 1.57383 9.22404 2.54464 10.3172C3.32208 11.1926 4.27364 11.9253 5.11405 12.5724C5.30455 12.7191 5.48935 12.8614 5.66511 12.9999C6.0066 13.2691 6.37319 13.5562 6.74471 13.7733C7.11607 13.9903 7.5399 14.1667 8.00016 14.1667C8.46043 14.1667 8.88426 13.9903 9.25561 13.7733C9.62713 13.5562 9.99373 13.2691 10.3352 12.9999C10.511 12.8614 10.6958 12.7191 10.8863 12.5724C11.7267 11.9253 12.6782 11.1926 13.4557 10.3172C14.4265 9.22404 15.1668 7.86842 15.1668 6.0914C15.1668 4.28336 14.1437 2.71528 12.6663 2.03998C11.2675 1.40058 9.54153 1.5935 8.00016 2.97255Z" fill="#1A1A1A"/>
</svg>
