<svg width="22" height="21" viewBox="0 0 22 21" fill="none" xmlns="http://www.w3.org/2000/svg">
<path fill-rule="evenodd" clip-rule="evenodd" d="M19.6735 9.50023C19.6532 9.50001 19.6266 9.5 19.5833 9.5H16.9808C15.5574 9.5 14.5 10.5587 14.5 11.75C14.5 12.9413 15.5574 14 16.9808 14H19.5833C19.6266 14 19.6532 14 19.6735 13.9998C19.6927 13.9996 19.698 13.9992 19.698 13.9992C19.904 13.9867 19.9927 13.8476 19.9995 13.7639C19.9995 13.7639 19.9997 13.7577 19.9998 13.7486C20 13.7308 20 13.7072 20 13.6667V9.83333C20 9.81092 20 9.79366 20 9.77971C19.9999 9.76845 19.9999 9.75935 19.9998 9.75142C19.9997 9.74236 19.9995 9.73608 19.9995 9.73608C19.9927 9.6524 19.904 9.5133 19.6979 9.50076C19.6979 9.50076 19.693 9.50043 19.6735 9.50023ZM19.5999 8C19.6663 7.99997 19.7303 7.99995 19.7891 8.00353C20.6604 8.05656 21.431 8.7138 21.4958 9.63179C21.5001 9.69199 21.5 9.75687 21.5 9.81701C21.5 9.82249 21.5 9.82794 21.5 9.83333V13.6667C21.5 13.6721 21.5 13.6775 21.5 13.683C21.5 13.7431 21.5001 13.808 21.4958 13.8682C21.431 14.7862 20.6604 15.4434 19.7891 15.4965C19.7303 15.5001 19.6663 15.5 19.5999 15.5C19.5944 15.5 19.5889 15.5 19.5833 15.5H16.9808C14.8356 15.5 13 13.8724 13 11.75C13 9.62756 14.8356 8 16.9808 8H19.5833C19.5889 8 19.5944 8 19.5999 8Z" fill="#608EE7"/>
<path d="M17.75 11.75C17.75 12.3023 17.3023 12.75 16.75 12.75C16.1977 12.75 15.75 12.3023 15.75 11.75C15.75 11.1977 16.1977 10.75 16.75 10.75C17.3023 10.75 17.75 11.1977 17.75 11.75Z" fill="#608EE7"/>
<path fill-rule="evenodd" clip-rule="evenodd" d="M19.5999 8C19.6663 7.99997 19.7303 7.99995 19.7891 8.00353C20.0145 8.01725 20.2332 8.07141 20.4347 8.16007C20.3277 6.55363 20.0331 5.31563 19.1088 4.39124C18.3604 3.64288 17.4114 3.31076 16.239 3.15313L16.1967 3.14754C16.1862 3.13977 16.1755 3.13223 16.1645 3.12492L12.429 0.648059C11.1258 -0.216019 9.37418 -0.21602 8.07102 0.648058L4.33554 3.12492C4.32453 3.13223 4.31377 3.13977 4.30327 3.14754L4.26098 3.15313C3.08856 3.31076 2.13961 3.64288 1.39124 4.39124C0.64288 5.13961 0.310763 6.08856 0.153135 7.26098C-2.81632e-05 8.40019 -1.55332e-05 9.85582 3.21614e-07 11.6936V11.8064C-1.55332e-05 13.6442 -2.81632e-05 15.0998 0.153135 16.239C0.310763 17.4114 0.64288 18.3604 1.39124 19.1088C2.13961 19.8571 3.08856 20.1892 4.26098 20.3469C5.40019 20.5 6.85583 20.5 8.69359 20.5H11.8064C13.6442 20.5 15.0998 20.5 16.239 20.3469C17.4114 20.1892 18.3604 19.8571 19.1088 19.1088C20.0331 18.1844 20.3277 16.9464 20.4347 15.3399C20.2332 15.4286 20.0145 15.4828 19.7891 15.4965C19.7303 15.5001 19.6663 15.5 19.5999 15.5L19.5833 15.5H18.9179C18.8041 16.8415 18.5466 17.5496 18.0481 18.0481C17.6249 18.4713 17.0452 18.725 16.0392 18.8602C15.0115 18.9984 13.6568 19 11.75 19H8.75C6.84318 19 5.48851 18.9984 4.46085 18.8602C3.45476 18.725 2.87511 18.4713 2.4519 18.0481C2.02869 17.6249 1.77502 17.0452 1.63976 16.0392C1.50159 15.0115 1.5 13.6568 1.5 11.75C1.5 9.84318 1.50159 8.48851 1.63976 7.46085C1.77502 6.45476 2.02869 5.87511 2.4519 5.4519C2.87511 5.02869 3.45476 4.77502 4.46085 4.63976C5.48851 4.50159 6.84318 4.5 8.75 4.5H11.75C13.6568 4.5 15.0115 4.50159 16.0392 4.63976C17.0452 4.77502 17.6249 5.02869 18.0481 5.4519C18.5466 5.95043 18.8041 6.65854 18.9179 8H19.5833L19.5999 8ZM8.69358 3H11.8064C12.3229 2.99999 12.8092 2.99999 13.2668 3.00339L11.6001 1.89821C10.7993 1.36726 9.7007 1.36726 8.89995 1.89821L7.23318 3.00339C7.69077 2.99999 8.17708 2.99999 8.69358 3Z" fill="#608EE7"/>
<path d="M4.75 7C4.33579 7 4 7.33579 4 7.75C4 8.16421 4.33579 8.5 4.75 8.5H8.75C9.16421 8.5 9.5 8.16421 9.5 7.75C9.5 7.33579 9.16421 7 8.75 7H4.75Z" fill="#608EE7"/>
<path fill-rule="evenodd" clip-rule="evenodd" d="M17.75 11.75C17.75 12.3023 17.3023 12.75 16.75 12.75C16.1977 12.75 15.75 12.3023 15.75 11.75C15.75 11.1977 16.1977 10.75 16.75 10.75C17.3023 10.75 17.75 11.1977 17.75 11.75Z" fill="#608EE7"/>
</svg>
