<svg width="24" height="24" viewBox="0 0 24 24" fill="none" xmlns="http://www.w3.org/2000/svg">
<path d="M22 16.92V19.92C22.0011 20.1986 21.944 20.4742 21.8325 20.7294C21.721 20.9846 21.5573 21.2137 21.3521 21.4019C21.1468 21.5902 20.9046 21.7336 20.6407 21.8228C20.3769 21.912 20.0974 21.9452 19.82 21.92C16.7428 21.5857 13.787 20.5342 11.19 18.85C8.77382 17.2436 6.72533 15.1951 5.11995 12.7799C3.43343 10.1793 2.38128 7.22019 2.04995 4.13998C2.02476 3.86311 2.05786 3.58414 2.14713 3.32087C2.2364 3.05759 2.37989 2.81577 2.56821 2.61081C2.75653 2.40585 2.98555 2.2423 3.24058 2.13071C3.49561 2.01912 3.771 1.96191 4.04995 1.96298H7.04995C7.54589 1.95874 8.02641 2.13904 8.39893 2.46913C8.77145 2.79921 8.99583 3.24357 9.02995 3.71998C9.09267 4.6705 9.32483 5.60334 9.71995 6.48998C9.87766 6.82289 9.91185 7.19946 9.81774 7.55018C9.72363 7.9009 9.50742 8.2023 9.20995 8.40998L7.93995 9.67998C9.3638 12.1824 11.4373 14.2559 13.94 15.68L15.21 14.41C15.4176 14.1125 15.719 13.8963 16.0698 13.8022C16.4205 13.7081 16.797 13.7423 17.13 13.9C18.0166 14.2951 18.9494 14.5273 19.9 14.59C20.3804 14.6247 20.8282 14.8524 21.1593 15.2307C21.4905 15.6089 21.6698 16.0967 21.66 16.59L22 16.92Z" stroke="currentColor" stroke-width="2" stroke-linecap="round" stroke-linejoin="round"/>
<path d="M15 7H21" stroke="currentColor" stroke-width="2" stroke-linecap="round" stroke-linejoin="round"/>
<path d="M18 4V10" stroke="currentColor" stroke-width="2" stroke-linecap="round" stroke-linejoin="round"/>
</svg>
